<svg width="25" height="48" xmlns="http://www.w3.org/2000/svg" xmlns:xlink="http://www.w3.org/1999/xlink" xmlns:svgjs="http://svgjs.com/svgjs" viewBox="38 408 25 48"><svg width="25" height="48" xmlns="http://www.w3.org/2000/svg" xmlns:xlink="http://www.w3.org/1999/xlink" xmlns:svgjs="http://svgjs.com/svgjs" viewBox="0.05 0 24.9 48" fill="#ffde2f" x="38" y="408"><svg xmlns="http://www.w3.org/2000/svg" width="25" height="48" viewBox="0.176 0.839 24.101 46.46"><path paint-order="stroke fill markers" fill-rule="evenodd" d="M15.863 8.997c.486-.576 1.467-.99 2.86-.99 1.299 0 2.855.192 4.322.606l1.232-6.637c-2.53-.887-5.141-1.137-7.84-1.137-2.7 0-4.823.413-6.533 1.402-1.719.944-2.861 2.02-3.511 3.583-.657 1.402-.98 3.746-.98 6.698v2.61H.176v7.58h5.237v23.85c2.196.5 4.491.737 6.858.737.893 0 1.8 0 2.692-.161V22.713h6.938V15.13h-6.938v-2.45c0-1.872.25-3.021.9-3.684z"/></svg></svg></svg>