<svg width="35" height="35" xmlns="http://www.w3.org/2000/svg" xmlns:xlink="http://www.w3.org/1999/xlink" xmlns:svgjs="http://svgjs.com/svgjs" viewBox="0 0.037 35 34.927" fill="red"><svg xmlns="http://www.w3.org/2000/svg" width="35" height="35" viewBox="0.101 0.54 34.232 34.161"><path paint-order="stroke fill markers" fill-rule="evenodd" d="M29.806.54H4.644C1.65.54.101 2.135.101 5.114V30.232c0 2.891 1.594 4.47 4.396 4.47h25.31c2.921 0 4.526-1.579 4.526-4.5V5.01c0-2.875-1.605-4.47-4.527-4.47zm-2.773 3.88c3.394 0 3.394 0 3.394 3.394 0 3.302 0 3.302-3.333 3.302-3.363 0-3.363 0-3.363-3.36 0-3.336 0-3.336 3.302-3.336zm-9.791 6.566c3.567 0 6.635 3.08 6.576 6.635-.028 3.659-3.067 6.666-6.694 6.608-3.6-.058-6.638-3.113-6.55-6.667.089-3.598 3.096-6.576 6.668-6.576zm13.185 17.815c-.03 1.594-.445 2.036-2.036 2.036H17.195 6.033c-1.565 0-2.007-.442-2.007-2.036 0-4.13.015-8.318-.058-12.477 0-1.181.323-1.431 1.415-1.402 1.563.135 1.592.06 1.416 1.593-.606 5.265 3.051 10.413 8.257 11.431 5.37 1.018 10.738-2.197 12.214-7.345.442-1.607.574-3.333.237-4.911-.119-.605.029-.708.56-.708 2.36-.192 2.36-.22 2.36 2.228V28.8z"/></svg></svg>