<svg width="40" height="40" xmlns="http://www.w3.org/2000/svg" xmlns:xlink="http://www.w3.org/1999/xlink" xmlns:svgjs="http://svgjs.com/svgjs" viewBox="30 503 40 40"><svg width="40" height="40" xmlns="http://www.w3.org/2000/svg" xmlns:xlink="http://www.w3.org/1999/xlink" xmlns:svgjs="http://svgjs.com/svgjs" viewBox="0.108 0 39.784 40" fill="#ffde2f" x="30" y="503"><svg xmlns="http://www.w3.org/2000/svg" xmlns:xlink="http://www.w3.org/1999/xlink" width="40" height="40" viewBox="0.94 0.243 38.568 38.777"><path paint-order="stroke fill markers" fill-rule="evenodd" d="M38.988 15.096C36.894 6.336 29.335.362 20.22.243c-1.204.06-2.5.147-3.682.37C3.76 3.195-2.819 17.295 3.36 28.65c.221.326.221.607.179.96-.9 2.949-1.726 5.974-2.523 8.952-.134.518-.134.518.361.384a373.146 373.146 0 0 1 9.321-2.42c.272-.087.464-.087.694.032 3.996 2.033 8.216 2.609 12.638 1.783 10.555-2.034 17.48-12.8 14.958-23.244zm-16.063 20.16c-.922.164-1.786.25-2.219.193-3.4 0-6.137-.766-8.68-2.226-.361-.223-.634-.282-.982-.147-1.74.413-3.436.884-5.161 1.326-.353.102-.39.031-.31-.308.457-1.594.885-3.217 1.386-4.869.111-.443.082-.795-.2-1.137-3.486-5.69-3.332-12.667.57-17.946 4.063-5.43 9.645-7.684 16.275-6.255 6.541 1.37 10.731 5.621 12.22 12.137 2.114 8.923-3.902 17.775-12.899 19.233z"/></svg></svg><svg width="21" height="19" xmlns="http://www.w3.org/2000/svg" xmlns:xlink="http://www.w3.org/1999/xlink" xmlns:svgjs="http://svgjs.com/svgjs" viewBox="0.291 0 20.419 19" fill="#ffde2f" x="40" y="513"><svg xmlns="http://www.w3.org/2000/svg" width="21" height="19" viewBox="0.49 0.533 19.527 18.17"><path paint-order="stroke fill markers" fill-rule="evenodd" d="M15.256 18.648c-.672.077-1.35-.057-1.998-.25-4.403-1.297-7.736-3.995-10.414-7.652C1.848 9.389.897 7.929.61 6.203.205 4.212.832 2.425 2.343 1.07c.5-.487 1.97-.71 2.565-.383.192.16.304.31.43.502.544 1.37 1.127 2.638 1.68 3.936.08.296.067.546-.08.826-.295.607-.746 1.078-1.181 1.593-.369.31-.369.663-.118 1.047 1.578 2.64 3.71 4.543 6.57 5.649.415.163.732.104.99-.222.494-.575.98-1.21 1.438-1.812.28-.369.655-.445 1.07-.253.942.413 1.87.856 2.772 1.271.25.132.427.219.648.322.95.472.95.533.842 1.55-.125 2.005-1.668 3.024-3.432 3.526a3.106 3.106 0 0 1-1.281.026z"/></svg></svg></svg>