<svg width="41" height="34" xmlns="http://www.w3.org/2000/svg" xmlns:xlink="http://www.w3.org/1999/xlink" xmlns:svgjs="http://svgjs.com/svgjs" viewBox="0 0.207 41 33.585" fill="#ffde2f"><svg xmlns="http://www.w3.org/2000/svg" width="41" height="34" viewBox="0.074 0.117 40.328 33.035"><path paint-order="stroke fill markers" fill-rule="evenodd" d="M.074 29.52c3.01.191 5.93-.25 8.673-1.49a15.72 15.72 0 0 0 3.48-2.093 8.35 8.35 0 0 1-3.598-.9c-1.858-.944-3.17-2.434-3.967-4.441-.179-.441-.179-.441.31-.41 1.326.13 2.3.103 3.052-.192-.721-.252-1.402-.384-1.963-.752-2.772-1.536-4.246-3.91-4.496-7.095-.031-.371.074-.413.41-.253.977.547 2.037.77 3.26.887-.529-.471-.986-.855-1.4-1.27C1.535 9.035.99 5.11 2.524 2.088c.205-.414.279-.414.56-.088 3.88 4.467 8.702 7.166 14.513 8.095.59.119 1.24.119 1.844.252.413.059.456-.133.398-.441a8.32 8.32 0 0 1 4.13-8.705c3.157-1.843 7.255-1.268 9.794 1.21.294.252.573.31.915.22A15.528 15.528 0 0 0 39.071.909c.118-.03.205-.089.354-.223-.591 1.978-1.77 3.438-3.511 4.601 1.607-.145 3.054-.634 4.485-1.163.029.193-.118.31-.208.471a16.97 16.97 0 0 1-3.451 3.525c-.25.192-.308.356-.308.666.102 6.106-1.844 11.53-5.738 16.252-3.659 4.29-8.334 6.903-13.894 7.786-5.901.916-11.446-.057-16.548-3.214a.299.299 0 0 0-.178-.09z"/></svg></svg>